#!OML:ASF H:\Terrain\Patient Classification 1\Animal2\Wednesday\Animal2.ASF
:FULLY-SPECIFIED
:DEGREES
5051
root 2.10495 17.6552 -17.4594 -356.307 48.1977 -360.914
lowerback 5.41339 -2.08184 1.4406
upperback -2.95253 -2.51591 2.40726
thorax -6.06543 -1.24017 1.96566
lowerneck 13.9165 14.0603 19.8294
upperneck -6.89045 21.0438 -19.6891
head 0.0156096 11.1316 -9.24242
rclavicle -7.36373e-014 1.74931e-014
rhumerus -31.8876 3.91859 -84.7564
rradius 24.8411
rwrist 15.7565
rhand -11.0445 2.10325
rfingers 7.12502
rthumb 14.9777 -27.3351
lclavicle -7.36373e-014 1.74931e-014
lhumerus -51.9825 -43.247 107.043
lradius 45.7715
lwrist 52.4028
lhand -31.77 53.9067
lfingers 7.12502
lthumb -5.0267 83.827
rfemur -8.76337 -9.85222 23.1335
rtibia 27.6068
rfoot -24.5091 -15.5416
rtoes 14.2888
lfemur -13.9896 14.2424 -22.8354
ltibia 30.0515
lfoot -21.9028 14.205
ltoes -9.3724
5052
root 2.09177 17.6389 -17.4352 -356.6 47.7231 -361.17
lowerback 5.4473 -2.09263 1.50569
upperback -2.8704 -2.52057 2.50086
thorax -5.99709 -1.24317 2.02601
lowerneck 14.0514 14.1094 19.7232
upperneck -6.89265 21.1135 -19.8057
head 0.0105866 11.1817 -9.27071
rclavicle -7.54139e-015 -1.82882e-014
rhumerus -32.0473 4.26494 -84.8228
rradius 24.8976
rwrist 15.5783
rhand -10.8306 2.09696
rfingers 7.12502
rthumb 15.1836 -27.3259
lclavicle -7.54139e-015 -1.82882e-014
lhumerus -51.577 -43.4483 106.947
lradius 46.3432
lwrist 52.7548
lhand -32.1648 53.8008
lfingers 7.12502
lthumb -5.40785 83.7118
rfemur -8.62639 -9.3063 23.3247
rtibia 27.5415
rfoot -24.5418 -14.4929
rtoes 16.6691
lfemur -14.2225 14.7793 -22.4887
ltibia 30.8412
lfoot -22.7071 13.2308
ltoes -6.18142
5053
root 2.07918 17.6236 -17.4106 -356.865 47.2679 -361.414
lowerback 5.48868 -2.08887 1.60693
upperback -2.84541 -2.50517 2.5255
thorax -5.99831 -1.23893 1.99453
lowerneck 14.1469 14.0807 19.9063
upperneck -6.7127 21.1385 -19.9565
head 0.0903177 11.205 -9.33612
rclavicle -5.18828e-014 -1.74931e-014
rhumerus -32.2643 3.98794 -84.7462
rradius 25.0219
rwrist 15.9369
rhand -10.5286 2.2455
rfingers 7.12502
rthumb 15.4746 -27.1552
lclavicle -5.18828e-014 -1.74931e-014
lhumerus -51.1186 -43.5228 106.591
lradius 46.6681
lwrist 52.5969
lhand -31.3382 53.2824
lfingers 7.12502
lthumb -4.60969 83.2122
rfemur -8.39139 -9.24799 23.5093
rtibia 27.4026
rfoot -24.5883 -14.9766
rtoes 12.4657
lfemur -14.5353 15.352 -22.1461
ltibia 31.7377
lfoot -23.1704 12.7484
ltoes -5.01266
5054
root 2.06717 17.6183 -17.3853 -357.048 46.7732 -361.62
lowerback 5.51475 -2.07867 1.71435
upperback -2.862 -2.48283 2.50267
thorax -6.03699 -1.23252 1.91014
lowerneck 14.1022 14.0222 20.1585
upperneck -6.46363 21.119 -19.9944
head 0.196681 11.1924 -9.36333
rclavicle 7.00716e-014 -1.27222e-014
rhumerus -32.573 4.43355 -85.0122
rradius 25.3201
rwrist 15.2989
rhand -10.4218 2.18492
rfingers 7.12502
rthumb 15.5774 -27.2078
lclavicle 7.00716e-014 -1.27222e-014
lhumerus -50.7037 -43.4823 106.071
lradius 47.0091
lwrist 52.3945
lhand -30.1965 52.1662
lfingers 7.12502
lthumb -3.50725 82.1171
rfemur -8.26136 -9.40362 23.6952
rtibia 27.2992
rfoot -24.6551 -14.2429
rtoes 13.531
lfemur -14.93 15.7654 -21.844
ltibia 32.6559
lfoot -23.1946 13.2583
ltoes -7.82736
5055
root 2.05785 17.6153 -17.3606 -357.245 46.2244 -361.674
lowerback 5.51303 -2.09383 1.66154
upperback -2.70589 -2.5125 2.50686
thorax -5.86831 -1.24594 1.94153
lowerneck 14.0142 14.0384 20.2165
upperneck -6.47271 21.133 -20.1111
head 0.231393 11.2009 -9.39543
rclavicle -1.15059e-013 -2.8625e-014
rhumerus -32.649 5.36175 -85.3563
rradius 25.677
rwrist 14.3151
rhand -10.5815 2.20209
rfingers 7.12502
rthumb 15.4237 -27.2025
lclavicle -1.15059e-013 -2.8625e-014
lhumerus -50.365 -43.6983 105.917
lradius 47.5841
lwrist 52.593
lhand -30.7513 51.7323
lfingers 7.12502
lthumb -4.04294 81.6737
rfemur -8.10723 -9.33267 23.7278
rtibia 27.2338
rfoot -24.9343 -12.8478
rtoes 17.9533
lfemur -15.1757 16.1219 -21.6218
ltibia 33.6107
lfoot -23.1976 13.7099
ltoes -10.1376
